HIERARCHY
ROOT hip
{
  OFFSET 0 90.174 2.4664
  CHANNELS 6 Xposition Yposition Zposition Zrotation Xrotation Yrotation
  JOINT abdomen
  {
    OFFSET 0 -1.186 -1.5018
    CHANNELS 6 Xposition Yposition Zposition Zrotation Xrotation Yrotation
    JOINT abdomen2
    {
      OFFSET 0 9.964 0.2134
      CHANNELS 6 Xposition Yposition Zposition Zrotation Xrotation Yrotation
      JOINT chest
      {
        OFFSET 0 13.134 -3.2573
        CHANNELS 6 Xposition Yposition Zposition Zrotation Xrotation Yrotation
        JOINT neck
        {
          OFFSET 0 20.686 -1.6905
          CHANNELS 6 Xposition Yposition Zposition Zrotation Xrotation Yrotation
          JOINT head
          {
            OFFSET 0 7.238 -0.1237
            CHANNELS 6 Xposition Yposition Zposition Zrotation Xrotation Yrotation
            End Site
            {
              OFFSET 0 0 0
            }
          }
        }
        JOINT lCollar
        {
          OFFSET 1.7069 20.075 5.0056
          CHANNELS 6 Xposition Yposition Zposition Zrotation Xrotation Yrotation
          JOINT lShldr
          {
            OFFSET 13.6458 -0.047 -4.849
            CHANNELS 6 Xposition Yposition Zposition Zrotation Xrotation Yrotation
            JOINT lForeArm
            {
              OFFSET 28.3255 -0.9759 2.2888
              CHANNELS 6 Xposition Yposition Zposition Zrotation Xrotation Yrotation
              JOINT lHand
              {
                OFFSET 22.1583 -0.53 10.8316
                CHANNELS 6 Xposition Yposition Zposition Zrotation Xrotation Yrotation
                JOINT lThumb1
                {
                  OFFSET 0.786 0.112 2.5817
                  CHANNELS 6 Xposition Yposition Zposition Zrotation Xrotation Yrotation
                  JOINT lThumb2
                  {
                    OFFSET 0.3601 -0.878 4.2331
                    CHANNELS 6 Xposition Yposition Zposition Zrotation Xrotation Yrotation
                    JOINT lThumb2_End
                    {
                      OFFSET 1.8127 -1.216 2.2227
                      CHANNELS 6 Xposition Yposition Zposition Zrotation Xrotation Yrotation
                      End Site
                      {
                        OFFSET 0.0181 -0.0122 0.0222
                      }
                    }
                  }
                }
                JOINT lCarpal1
                {
                  OFFSET 0.9571 1.114 1.7695
                  CHANNELS 6 Xposition Yposition Zposition Zrotation Xrotation Yrotation
                  JOINT lIndex1
                  {
                    OFFSET 4.1246 0.487 4.1451
                    CHANNELS 6 Xposition Yposition Zposition Zrotation Xrotation Yrotation
                    JOINT lIndex2
                    {
                      OFFSET 3.4052 -1.454 2.7682
                      CHANNELS 6 Xposition Yposition Zposition Zrotation Xrotation Yrotation
                      JOINT lIndex2_End
                      {
                        OFFSET 1.4531 -1.795 1.2713
                        CHANNELS 6 Xposition Yposition Zposition Zrotation Xrotation Yrotation
                        End Site
                        {
                          OFFSET 0.0145 -0.0179 0.0127
                        }
                      }
                    }
                  }
                  JOINT lMid1
                  {
                    OFFSET 5.6954 0.21 2.1184
                    CHANNELS 6 Xposition Yposition Zposition Zrotation Xrotation Yrotation
                    JOINT lMid2
                    {
                      OFFSET 3.9766 -1.54 2.3863
                      CHANNELS 6 Xposition Yposition Zposition Zrotation Xrotation Yrotation
                      JOINT lMid2_End
                      {
                        OFFSET 1.4042 -1.926 1.125
                        CHANNELS 6 Xposition Yposition Zposition Zrotation Xrotation Yrotation
                        End Site
                        {
                          OFFSET 0.014 -0.0193 0.0113
                        }
                      }
                    }
                  }
                }
                JOINT lCarpal2
                {
                  OFFSET 2.0956 0.66 -0.3894
                  CHANNELS 6 Xposition Yposition Zposition Zrotation Xrotation Yrotation
                  JOINT lRing1
                  {
                    OFFSET 5.0395 -0.09 2.4971
                    CHANNELS 6 Xposition Yposition Zposition Zrotation Xrotation Yrotation
                    JOINT lRing2
                    {
                      OFFSET 3.7921 -1.552 1.4806
                      CHANNELS 6 Xposition Yposition Zposition Zrotation Xrotation Yrotation
                      JOINT lRing2_End
                      {
                        OFFSET 1.4655 -1.808 0.9609
                        CHANNELS 6 Xposition Yposition Zposition Zrotation Xrotation Yrotation
                        End Site
                        {
                          OFFSET 0.0147 -0.0181 0.0096
                        }
                      }
                    }
                  }
                  JOINT lPinky1
                  {
                    OFFSET 4.9141 -1.269 0.3591
                    CHANNELS 6 Xposition Yposition Zposition Zrotation Xrotation Yrotation
                    JOINT lPinky2
                    {
                      OFFSET 3.1477 -1.685 0.8462
                      CHANNELS 6 Xposition Yposition Zposition Zrotation Xrotation Yrotation
                      JOINT lPinky2_End
                      {
                        OFFSET 0.8055 -1.585 0.7955
                        CHANNELS 6 Xposition Yposition Zposition Zrotation Xrotation Yrotation
                        End Site
                        {
                          OFFSET 0.0081 -0.0158 0.008
                        }
                      }
                    }
                  }
                }
              }
            }
          }
        }
        JOINT rCollar
        {
          OFFSET -1.7069 20.075 5.0056
          CHANNELS 6 Xposition Yposition Zposition Zrotation Xrotation Yrotation
          JOINT rShldr
          {
            OFFSET -13.6458 -0.047 -4.849
            CHANNELS 6 Xposition Yposition Zposition Zrotation Xrotation Yrotation
            JOINT rForeArm
            {
              OFFSET -28.3255 -0.9759 2.2888
              CHANNELS 6 Xposition Yposition Zposition Zrotation Xrotation Yrotation
              JOINT rHand
              {
                OFFSET -22.1583 -0.53 10.8316
                CHANNELS 6 Xposition Yposition Zposition Zrotation Xrotation Yrotation
                JOINT rThumb1
                {
                  OFFSET -0.786 0.112 2.5817
                  CHANNELS 6 Xposition Yposition Zposition Zrotation Xrotation Yrotation
                  JOINT rThumb2
                  {
                    OFFSET -0.3601 -0.878 4.2331
                    CHANNELS 6 Xposition Yposition Zposition Zrotation Xrotation Yrotation
                    JOINT rThumb2_End
                    {
                      OFFSET -1.8127 -1.216 2.2227
                      CHANNELS 6 Xposition Yposition Zposition Zrotation Xrotation Yrotation
                      End Site
                      {
                        OFFSET -0.0181 -0.0122 0.0222
                      }
                    }
                  }
                }
                JOINT rCarpal1
                {
                  OFFSET -0.9571 1.114 1.7695
                  CHANNELS 6 Xposition Yposition Zposition Zrotation Xrotation Yrotation
                  JOINT rIndex1
                  {
                    OFFSET -4.1246 0.487 4.1451
                    CHANNELS 6 Xposition Yposition Zposition Zrotation Xrotation Yrotation
                    JOINT rIndex2
                    {
                      OFFSET -3.4052 -1.454 2.7682
                      CHANNELS 6 Xposition Yposition Zposition Zrotation Xrotation Yrotation
                      JOINT rIndex2_End
                      {
                        OFFSET -1.4531 -1.795 1.2713
                        CHANNELS 6 Xposition Yposition Zposition Zrotation Xrotation Yrotation
                        End Site
                        {
                          OFFSET -0.0145 -0.018 0.0127
                        }
                      }
                    }
                  }
                  JOINT rMid1
                  {
                    OFFSET -5.6954 0.21 2.1184
                    CHANNELS 6 Xposition Yposition Zposition Zrotation Xrotation Yrotation
                    JOINT rMid2
                    {
                      OFFSET -3.9766 -1.54 2.3863
                      CHANNELS 6 Xposition Yposition Zposition Zrotation Xrotation Yrotation
                      JOINT rMid2_End
                      {
                        OFFSET -1.4042 -1.926 1.125
                        CHANNELS 6 Xposition Yposition Zposition Zrotation Xrotation Yrotation
                        End Site
                        {
                          OFFSET -0.014 -0.0193 0.0113
                        }
                      }
                    }
                  }
                }
                JOINT rCarpal2
                {
                  OFFSET -2.0956 0.66 -0.3894
                  CHANNELS 6 Xposition Yposition Zposition Zrotation Xrotation Yrotation
                  JOINT rRing1
                  {
                    OFFSET -5.0395 -0.09 2.4971
                    CHANNELS 6 Xposition Yposition Zposition Zrotation Xrotation Yrotation
                    JOINT rRing2
                    {
                      OFFSET -3.7921 -1.552 1.4806
                      CHANNELS 6 Xposition Yposition Zposition Zrotation Xrotation Yrotation
                      JOINT rRing2_End
                      {
                        OFFSET -1.4655 -1.808 0.9609
                        CHANNELS 6 Xposition Yposition Zposition Zrotation Xrotation Yrotation
                        End Site
                        {
                          OFFSET -0.0147 -0.0181 0.0096
                        }
                      }
                    }
                  }
                  JOINT rPinky1
                  {
                    OFFSET -4.9141 -1.269 0.3592
                    CHANNELS 6 Xposition Yposition Zposition Zrotation Xrotation Yrotation
                    JOINT rPinky2
                    {
                      OFFSET -3.1477 -1.685 0.8462
                      CHANNELS 6 Xposition Yposition Zposition Zrotation Xrotation Yrotation
                      JOINT rPinky2_End
                      {
                        OFFSET -0.8055 -1.585 0.7955
                        CHANNELS 6 Xposition Yposition Zposition Zrotation Xrotation Yrotation
                        End Site
                        {
                          OFFSET -0.0081 -0.0158 0.008
                        }
                      }
                    }
                  }
                }
              }
            }
          }
        }
      }
    }
  }
  JOINT lThigh
  {
    OFFSET 8.367 -8.2066 0.5982
    CHANNELS 6 Xposition Yposition Zposition Zrotation Xrotation Yrotation
    JOINT lShin
    {
      OFFSET 2.1923 -43.463 -0.4932
      CHANNELS 6 Xposition Yposition Zposition Zrotation Xrotation Yrotation
      JOINT lFoot
      {
        OFFSET 0.7333 -45.8593 -2.6451
        CHANNELS 6 Xposition Yposition Zposition Zrotation Xrotation Yrotation
        End Site
        {
          OFFSET 2.6618 -4.2699 12.3931
        }
      }
    }
  }
  JOINT rThigh
  {
    OFFSET -8.367 -8.2066 0.5982
    CHANNELS 6 Xposition Yposition Zposition Zrotation Xrotation Yrotation
    JOINT rShin
    {
      OFFSET -2.1923 -43.463 -0.4931
      CHANNELS 6 Xposition Yposition Zposition Zrotation Xrotation Yrotation
      JOINT rFoot
      {
        OFFSET -0.7333 -45.8593 -2.6451
        CHANNELS 6 Xposition Yposition Zposition Zrotation Xrotation Yrotation
        End Site
        {
          OFFSET -2.6618 -4.2699 12.3931
        }
      }
    }
  }
}
MOTION
Frames:	4
Frame Time:	0.0333333
17.574 22.4506 26.0528 -0 -33.0001 -0 0 -1.186 -1.5018 1.55037e-007 18.5993 -3.28151e-007 0 9.964 0.2134 4.70906e-007 37.1986 -7.80682e-007 3.55271e-015 13.134 -3.2573 4.70906e-007 37.1986 -7.80682e-007 -3.55271e-015 20.686 -1.6905 9.93875e-014 14.3046 -4.66384e-013 0 7.238 -0.1237 0.983984 -29.4494 -2.28605 1.7069 20.075 5.0056 -1.50183e-013 1.22877e-005 -7.8872e-014 13.6458 -0.047 -4.849 -60.4991 -0.825805 -13.4008 28.3255 -0.9759 2.2888 -1.6106 -1.7484 -98.9463 22.1583 -0.53 10.8316 -55.3404 -17.8857 0.401806 0.786 0.112 2.5817 -3.18055e-015 6.36111e-015 -7.95139e-016 0.3601 -0.878 4.2331 -8.74653e-015 9.54166e-015 -3.18055e-015 1.8127 -1.216 2.2227 -1.43125e-014 -6.36111e-015 -7.95139e-016 0.9571 1.114 1.7695 -3.97569e-015 1.27222e-014 -0 4.1246 0.487 4.1451 -1.27222e-014 2.8625e-014 -0 3.4052 -1.454 2.7682 -3.18055e-015 -9.54166e-015 -7.95139e-016 1.4531 -1.795 1.2713 4.77083e-015 -6.36111e-015 -0 5.6954 0.21 2.1184 -1.27222e-014 2.8625e-014 -0 3.9766 -1.54 2.3863 -3.18055e-015 -9.54166e-015 -7.95139e-016 1.4042 -1.926 1.125 4.77083e-015 -6.36111e-015 -0 2.0956 0.66 -0.3894 -3.97569e-015 1.27222e-014 -0 5.0395 -0.09 2.4971 -1.27222e-014 2.8625e-014 -0 3.7921 -1.552 1.4806 -3.18055e-015 -9.54166e-015 -7.95139e-016 1.4655 -1.808 0.9609 4.77083e-015 -6.36111e-015 -0 4.9141 -1.269 0.3591 -1.27222e-014 2.8625e-014 -0 3.1477 -1.685 0.8462 -3.18055e-015 -9.54166e-015 -7.95139e-016 0.8055 -1.585 0.7955 4.77083e-015 -6.36111e-015 -0 -1.7069 20.075 5.0056 2.93201e-007 5.08083e-006 1.9987 -13.6458 -0.047 -4.849 60.0401 8.56647 67.4003 -28.3255 -0.9759 2.2888 2.61859 2.91096 -5.7744 -22.1583 -0.53 10.8316 7.17792 21.2298 2.19494 -0.786 0.112 2.5817 1.19271e-015 -1.59028e-014 -0 -0.3601 -0.878 4.2331 -3.81374e-006 -4.35258e-007 -4.6611e-006 -1.8127 -1.216 2.2227 1.11439e-006 2.02919e-006 -2.24345e-006 -0.9571 1.114 1.7695 1.59028e-015 -9.54166e-015 -1.98785e-016 -4.1246 0.487 4.1451 -2.78299e-015 -6.36111e-015 1.39149e-015 -3.4052 -1.454 2.7682 -3.81374e-006 -4.35258e-007 -4.6611e-006 -1.4531 -1.795 1.2713 1.11439e-006 2.02919e-006 -2.24345e-006 -5.6954 0.21 2.1184 -2.78299e-015 -6.36111e-015 1.39149e-015 -3.9766 -1.54 2.3863 -3.81374e-006 -4.35258e-007 -4.6611e-006 -1.4042 -1.926 1.125 1.11439e-006 2.02919e-006 -2.24345e-006 -2.0956 0.66 -0.3894 1.59028e-015 -9.54166e-015 -1.98785e-016 -5.0395 -0.09 2.4971 -2.78299e-015 -6.36111e-015 1.39149e-015 -3.7921 -1.552 1.4806 -3.81374e-006 -4.35258e-007 -4.6611e-006 -1.4655 -1.808 0.9609 1.11439e-006 2.02919e-006 -2.24345e-006 -4.9141 -1.269 0.3592 -2.78299e-015 -6.36111e-015 1.39149e-015 -3.1477 -1.685 0.8462 -3.81374e-006 -4.35258e-007 -4.6611e-006 -0.8055 -1.585 0.7955 1.11439e-006 2.02919e-006 -2.24345e-006 8.367 -8.2066 0.5982 47.9743 -17.0831 1.05969 2.1923 -43.463 -0.4932 178.886 48.7909 -168.902 0.7333 -45.8593 -2.6451 1.52041 53.926 6.31479 -8.367 -8.2066 0.5982 -47.4844 -6.61976 12.505 -2.1923 -43.463 -0.4931 -178.897 62.3738 172.194 -0.7333 -45.8593 -2.6451 -5.3605 26.3346 -3.05409 
17.5492 22.4718 25.48 -0 -33.0001 -0 0 -1.186 -1.5018 1.55037e-007 18.5993 -3.28151e-007 0 9.964 0.2134 4.70906e-007 37.1986 -7.80682e-007 3.55271e-015 13.134 -3.2573 4.70906e-007 37.1986 -7.80682e-007 3.55271e-015 20.686 -1.6905 -5.94863e-013 14.0628 -1.5793e-012 0 7.238 -0.1237 1.00943 -31.154 -2.40597 1.7069 20.075 5.0056 -1.50183e-013 1.22877e-005 -7.8872e-014 13.6458 -0.047 -4.849 -60.6863 -0.894864 -13.9318 28.3255 -0.9759 2.2888 -1.57639 -1.74716 -97.8765 22.1583 -0.53 10.8316 -55.5494 -19.101 0.719242 0.786 0.112 2.5817 3.53113e-031 -6.36111e-015 3.18055e-015 0.3601 -0.878 4.2331 4.77083e-015 -9.54166e-015 5.56597e-015 1.8127 -1.216 2.2227 -2.38542e-015 -9.54166e-015 2.38542e-015 0.9571 1.114 1.7695 7.95139e-016 0 2.38542e-015 4.1246 0.487 4.1451 -3.18055e-015 0 -3.18055e-015 3.4052 -1.454 2.7682 -7.95139e-016 -1.27222e-014 -2.38542e-015 1.4531 -1.795 1.2713 -0 0 3.97569e-015 5.6954 0.21 2.1184 -3.18055e-015 0 -3.18055e-015 3.9766 -1.54 2.3863 -7.95139e-016 -1.27222e-014 -2.38542e-015 1.4042 -1.926 1.125 -0 0 3.97569e-015 2.0956 0.66 -0.3894 7.95139e-016 0 2.38542e-015 5.0395 -0.09 2.4971 -3.18055e-015 0 -3.18055e-015 3.7921 -1.552 1.4806 -7.95139e-016 -1.27222e-014 -2.38542e-015 1.4655 -1.808 0.9609 -0 0 3.97569e-015 4.9141 -1.269 0.3591 -3.18055e-015 0 -3.18055e-015 3.1477 -1.685 0.8462 -7.95139e-016 -1.27222e-014 -2.38542e-015 0.8055 -1.585 0.7955 -0 0 3.97569e-015 -1.7069 20.075 5.0056 2.93201e-007 5.08083e-006 1.9987 -13.6458 -0.047 -4.849 59.9489 8.22384 68.0246 -28.3255 -0.9759 2.2888 2.61861 2.91098 -5.77438 -22.1583 -0.53 10.8316 7.17793 21.2298 2.19494 -0.786 0.112 2.5817 1.78906e-015 -3.18055e-015 1.19271e-015 -0.3601 -0.878 4.2331 5.96354e-016 0 1.39149e-015 -1.8127 -1.216 2.2227 9.93923e-016 -3.18055e-015 1.19271e-015 -0.9571 1.114 1.7695 1.98785e-016 -3.18055e-015 5.96354e-016 -4.1246 0.487 4.1451 -9.93923e-016 -3.18055e-015 2.78299e-015 -3.4052 -1.454 2.7682 2.5842e-015 -3.18055e-015 1.78906e-015 -1.4531 -1.795 1.2713 9.93923e-016 0 1.59028e-015 -5.6954 0.21 2.1184 -9.93923e-016 -3.18055e-015 2.78299e-015 -3.9766 -1.54 2.3863 2.5842e-015 -3.18055e-015 1.78906e-015 -1.4042 -1.926 1.125 9.93923e-016 0 1.59028e-015 -2.0956 0.66 -0.3894 1.98785e-016 -3.18055e-015 5.96354e-016 -5.0395 -0.09 2.4971 -9.93923e-016 -3.18055e-015 2.78299e-015 -3.7921 -1.552 1.4806 2.5842e-015 -3.18055e-015 1.78906e-015 -1.4655 -1.808 0.9609 9.93923e-016 0 1.59028e-015 -4.9141 -1.269 0.3592 -9.93923e-016 -3.18055e-015 2.78299e-015 -3.1477 -1.685 0.8462 2.5842e-015 -3.18055e-015 1.78906e-015 -0.8055 -1.585 0.7955 9.93923e-016 0 1.59028e-015 8.367 -8.2066 0.5982 47.4457 -17.9281 1.58576 2.1923 -43.463 -0.4932 178.882 48.2116 -168.776 0.7333 -45.8593 -2.6451 1.44953 54.0576 6.43824 -8.367 -8.2066 0.5982 -47.2852 -7.40813 11.7007 -2.1923 -43.463 -0.4931 -178.912 61.2312 172.07 -0.7333 -45.8593 -2.6451 -5.34377 26.4902 -3.15123 
17.5245 22.4908 24.9063 -0 -33.0001 -0 0 -1.186 -1.5018 1.55037e-007 18.5993 -3.28151e-007 0 9.964 0.2134 4.70906e-007 37.1986 -7.80682e-007 0 13.134 -3.2573 4.70906e-007 37.1986 -7.80682e-007 0 20.686 -1.6905 6.58047e-013 13.8209 -9.13813e-013 0 7.238 -0.1237 1.03112 -32.8595 -2.52729 1.7069 20.075 5.0056 -1.50183e-013 1.22877e-005 -7.8872e-014 13.6458 -0.047 -4.849 -60.8746 -0.962311 -14.4638 28.3255 -0.9759 2.2888 -1.54204 -1.74526 -96.8005 22.1583 -0.53 10.8316 -55.7528 -20.3172 1.03438 0.786 0.112 2.5817 -2.96224e-006 -3.13961e-006 -8.00653e-007 0.3601 -0.878 4.2331 3.14129e-006 6.19513e-006 -2.51923e-007 1.8127 -1.216 2.2227 3.65619e-007 -3.58181e-006 -4.75185e-007 0.9571 1.114 1.7695 5.1684e-015 -3.18055e-015 3.18055e-015 4.1246 0.487 4.1451 -2.96224e-006 -3.13961e-006 -8.00653e-007 3.4052 -1.454 2.7682 3.14129e-006 6.19513e-006 -2.51923e-007 1.4531 -1.795 1.2713 3.65619e-007 -3.58181e-006 -4.75185e-007 5.6954 0.21 2.1184 -2.96224e-006 -3.13961e-006 -8.00653e-007 3.9766 -1.54 2.3863 3.14129e-006 6.19513e-006 -2.51923e-007 1.4042 -1.926 1.125 3.65619e-007 -3.58181e-006 -4.75185e-007 2.0956 0.66 -0.3894 5.1684e-015 -3.18055e-015 3.18055e-015 5.0395 -0.09 2.4971 -2.96224e-006 -3.13961e-006 -8.00653e-007 3.7921 -1.552 1.4806 3.14129e-006 6.19513e-006 -2.51923e-007 1.4655 -1.808 0.9609 3.65619e-007 -3.58181e-006 -4.75185e-007 4.9141 -1.269 0.3591 -2.96224e-006 -3.13961e-006 -8.00653e-007 3.1477 -1.685 0.8462 3.14129e-006 6.19513e-006 -2.51923e-007 0.8055 -1.585 0.7955 3.65619e-007 -3.58181e-006 -4.75185e-007 -1.7069 20.075 5.0056 2.93201e-007 5.08083e-006 1.9987 -13.6458 -0.047 -4.849 59.8615 7.88015 68.6479 -28.3255 -0.9759 2.2888 2.61862 2.91098 -5.77439 -22.1583 -0.53 10.8316 7.17794 21.2297 2.19494 -0.786 0.112 2.5817 -1.10096e-006 2.23066e-006 2.04232e-006 -0.3601 -0.878 4.2331 -3.97569e-016 3.18055e-015 -1.39149e-015 -1.8127 -1.216 2.2227 7.95139e-016 3.18055e-015 -1.2921e-015 -0.9571 1.114 1.7695 3.97569e-016 0 -1.19271e-015 -4.1246 0.487 4.1451 -1.10096e-006 2.23066e-006 2.04232e-006 -3.4052 -1.454 2.7682 5.96354e-016 3.18055e-015 -5.96354e-016 -1.4531 -1.795 1.2713 5.96354e-016 3.18055e-015 -1.49089e-015 -5.6954 0.21 2.1184 -1.10096e-006 2.23066e-006 2.04232e-006 -3.9766 -1.54 2.3863 5.96354e-016 3.18055e-015 -5.96354e-016 -1.4042 -1.926 1.125 5.96354e-016 3.18055e-015 -1.49089e-015 -2.0956 0.66 -0.3894 3.97569e-016 0 -1.19271e-015 -5.0395 -0.09 2.4971 -1.10096e-006 2.23066e-006 2.04232e-006 -3.7921 -1.552 1.4806 5.96354e-016 3.18055e-015 -5.96354e-016 -1.4655 -1.808 0.9609 5.96354e-016 3.18055e-015 -1.49089e-015 -4.9141 -1.269 0.3592 -1.10096e-006 2.23066e-006 2.04232e-006 -3.1477 -1.685 0.8462 5.96354e-016 3.18055e-015 -5.96354e-016 -0.8055 -1.585 0.7955 5.96354e-016 3.18055e-015 -1.49089e-015 8.367 -8.2066 0.5982 46.9218 -18.7811 2.11035 2.1923 -43.463 -0.4932 178.878 47.6317 -168.649 0.7333 -45.8593 -2.6451 1.37612 54.1931 6.56462 -8.367 -8.2066 0.5982 -47.0953 -8.20578 10.8888 -2.1923 -43.463 -0.4931 -178.925 60.0878 171.939 -0.7333 -45.8593 -2.6451 -5.32676 26.6519 -3.25192 
17.4998 22.5074 24.3317 -0 -33.0001 -0 0 -1.186 -1.5018 1.55037e-007 18.5993 -3.28151e-007 -3.55271e-015 9.964 0.2134 4.70906e-007 37.1986 -7.80682e-007 3.55271e-015 13.134 -3.2573 4.70906e-007 37.1986 -7.80682e-007 0 20.686 -1.6905 2.87734e-012 13.5792 -2.86609e-012 -3.55271e-015 7.238 -0.1237 1.04886 -34.5651 -2.65026 1.7069 20.075 5.0056 -1.50183e-013 1.22877e-005 -7.8872e-014 13.6458 -0.047 -4.849 -61.0636 -1.02808 -14.9968 28.3255 -0.9759 2.2888 -1.5075 -1.74272 -95.7185 22.1583 -0.53 10.8316 -55.9506 -21.5342 1.34735 0.786 0.112 2.5817 5.1879e-007 -5.29473e-007 -1.53569e-006 0.3601 -0.878 4.2331 6.66157e-006 -8.84471e-007 5.39468e-007 1.8127 -1.216 2.2227 5.1879e-007 -5.29473e-007 -1.53569e-006 0.9571 1.114 1.7695 5.96354e-015 -3.18055e-015 1.59028e-015 4.1246 0.487 4.1451 5.1879e-007 -5.29473e-007 -1.53569e-006 3.4052 -1.454 2.7682 6.66157e-006 -8.84471e-007 5.39468e-007 1.4531 -1.795 1.2713 5.1879e-007 -5.29473e-007 -1.53569e-006 5.6954 0.21 2.1184 5.1879e-007 -5.29473e-007 -1.53569e-006 3.9766 -1.54 2.3863 6.66157e-006 -8.84471e-007 5.39468e-007 1.4042 -1.926 1.125 5.1879e-007 -5.29473e-007 -1.53569e-006 2.0956 0.66 -0.3894 5.96354e-015 -3.18055e-015 1.59028e-015 5.0395 -0.09 2.4971 5.1879e-007 -5.29473e-007 -1.53569e-006 3.7921 -1.552 1.4806 6.66157e-006 -8.84471e-007 5.39468e-007 1.4655 -1.808 0.9609 5.1879e-007 -5.29473e-007 -1.53569e-006 4.9141 -1.269 0.3591 5.1879e-007 -5.29473e-007 -1.53569e-006 3.1477 -1.685 0.8462 6.66157e-006 -8.84471e-007 5.39468e-007 0.8055 -1.585 0.7955 5.1879e-007 -5.29473e-007 -1.53569e-006 -1.7069 20.075 5.0056 2.93201e-007 5.08083e-006 1.9987 -13.6458 -0.047 -4.849 59.7779 7.53549 69.2703 -28.3255 -0.9759 2.2888 2.61858 2.91098 -5.77441 -22.1583 -0.53 10.8316 7.17794 21.2298 2.19494 -0.786 0.112 2.5817 1.49089e-016 6.36111e-015 -2.68359e-015 -0.3601 -0.878 4.2331 3.47873e-016 9.54166e-015 -1.09332e-015 -1.8127 -1.216 2.2227 1.15552e-006 2.04878e-006 -2.22414e-006 -0.9571 1.114 1.7695 1.98785e-016 -3.18055e-015 -1.63997e-015 -4.1246 0.487 4.1451 -3.926e-015 6.36111e-015 1.54058e-015 -3.4052 -1.454 2.7682 5.96354e-016 1.27222e-014 -7.95139e-016 -1.4531 -1.795 1.2713 1.15552e-006 2.04878e-006 -2.22414e-006 -5.6954 0.21 2.1184 -3.926e-015 6.36111e-015 1.54058e-015 -3.9766 -1.54 2.3863 5.96354e-016 1.27222e-014 -7.95139e-016 -1.4042 -1.926 1.125 1.15552e-006 2.04878e-006 -2.22414e-006 -2.0956 0.66 -0.3894 1.98785e-016 -3.18055e-015 -1.63997e-015 -5.0395 -0.09 2.4971 -3.926e-015 6.36111e-015 1.54058e-015 -3.7921 -1.552 1.4806 5.96354e-016 1.27222e-014 -7.95139e-016 -1.4655 -1.808 0.9609 1.15552e-006 2.04878e-006 -2.22414e-006 -4.9141 -1.269 0.3592 -3.926e-015 6.36111e-015 1.54058e-015 -3.1477 -1.685 0.8462 5.96354e-016 1.27222e-014 -7.95139e-016 -0.8055 -1.585 0.7955 1.15552e-006 2.04878e-006 -2.22414e-006 8.367 -8.2066 0.5982 46.4029 -19.642 2.63368 2.1923 -43.463 -0.4932 178.873 47.0513 -168.519 0.7333 -45.8593 -2.6451 1.30024 54.3327 6.69395 -8.367 -8.2066 0.5982 -46.9149 -9.01275 10.0686 -2.1923 -43.463 -0.4931 -178.935 58.9439 171.8 -0.7333 -45.8593 -2.6451 -5.30944 26.8197 -3.35642 
